<svg xmlns="http://www.w3.org/2000/svg" width="363" height="774.58" viewBox="0 0 363 774.58"><g transform="translate(-25.5 -56.65)" opacity="0.7"><path d="M25.536,6.806l1.808,1.809L10.889,25.074,3.655,17.839,5.464,16.03l5.425,5.426L25.536,6.806m0-3.656L10.889,17.8,5.464,12.374,0,17.839,10.889,28.73,31,8.615Z" transform="translate(233 53.5)" opacity="0.06"/><path d="M25.536,6.806l1.808,1.809L10.889,25.074,3.655,17.839,5.464,16.03l5.425,5.426L25.536,6.806m0-3.656L10.889,17.8,5.464,12.374,0,17.839,10.889,28.73,31,8.615Z" transform="translate(233 267.5)" opacity="0.06"/><path d="M25.536,6.806l1.808,1.809L10.889,25.074,3.655,17.839,5.464,16.03l5.425,5.426L25.536,6.806m0-3.656L10.889,17.8,5.464,12.374,0,17.839,10.889,28.73,31,8.615Z" transform="translate(233 481.5)" opacity="0.06"/><path d="M25.536,6.806l1.808,1.809L10.889,25.074,3.655,17.839,5.464,16.03l5.425,5.426L25.536,6.806m0-3.656L10.889,17.8,5.464,12.374,0,17.839,10.889,28.73,31,8.615Z" transform="translate(233 695.5)" opacity="0.06"/><path d="M25.536,6.806l1.808,1.809L10.889,25.074,3.655,17.839,5.464,16.03l5.425,5.426L25.536,6.806m0-3.656L10.889,17.8,5.464,12.374,0,17.839,10.889,28.73,31,8.615Z" transform="translate(274.5 160.5)" opacity="0.06"/><path d="M25.536,6.806l1.808,1.809L10.889,25.074,3.655,17.839,5.464,16.03l5.425,5.426L25.536,6.806m0-3.656L10.889,17.8,5.464,12.374,0,17.839,10.889,28.73,31,8.615Z" transform="translate(274.5 374.5)" opacity="0.06"/><path d="M25.536,6.806l1.808,1.809L10.889,25.074,3.655,17.839,5.464,16.03l5.425,5.426L25.536,6.806m0-3.656L10.889,17.8,5.464,12.374,0,17.839,10.889,28.73,31,8.615Z" transform="translate(274.5 588.5)" opacity="0.06"/><path d="M25.536,6.806l1.808,1.809L10.889,25.074,3.655,17.839,5.464,16.03l5.425,5.426L25.536,6.806m0-3.656L10.889,17.8,5.464,12.374,0,17.839,10.889,28.73,31,8.615Z" transform="translate(274.5 802.5)" opacity="0.06"/><path d="M25.536,6.806l1.808,1.809L10.889,25.074,3.655,17.839,5.464,16.03l5.425,5.426L25.536,6.806m0-3.656L10.889,17.8,5.464,12.374,0,17.839,10.889,28.73,31,8.615Z" transform="translate(67 53.5)" opacity="0.06"/><path d="M25.536,6.806l1.808,1.809L10.889,25.074,3.655,17.839,5.464,16.03l5.425,5.426L25.536,6.806m0-3.656L10.889,17.8,5.464,12.374,0,17.839,10.889,28.73,31,8.615Z" transform="translate(67 267.5)" opacity="0.06"/><path d="M25.536,6.806l1.808,1.809L10.889,25.074,3.655,17.839,5.464,16.03l5.425,5.426L25.536,6.806m0-3.656L10.889,17.8,5.464,12.374,0,17.839,10.889,28.73,31,8.615Z" transform="translate(67 481.5)" opacity="0.06"/><path d="M25.536,6.806l1.808,1.809L10.889,25.074,3.655,17.839,5.464,16.03l5.425,5.426L25.536,6.806m0-3.656L10.889,17.8,5.464,12.374,0,17.839,10.889,28.73,31,8.615Z" transform="translate(67 695.5)" opacity="0.06"/><path d="M25.536,6.806l1.808,1.809L10.889,25.074,3.655,17.839,5.464,16.03l5.425,5.426L25.536,6.806m0-3.656L10.889,17.8,5.464,12.374,0,17.839,10.889,28.73,31,8.615Z" transform="translate(108.5 160.5)" opacity="0.06"/><path d="M25.536,6.806l1.808,1.809L10.889,25.074,3.655,17.839,5.464,16.03l5.425,5.426L25.536,6.806m0-3.656L10.889,17.8,5.464,12.374,0,17.839,10.889,28.73,31,8.615Z" transform="translate(108.5 374.5)" opacity="0.06"/><path d="M25.536,6.806l1.808,1.809L10.889,25.074,3.655,17.839,5.464,16.03l5.425,5.426L25.536,6.806m0-3.656L10.889,17.8,5.464,12.374,0,17.839,10.889,28.73,31,8.615Z" transform="translate(108.5 588.5)" opacity="0.06"/><path d="M25.536,6.806l1.808,1.809L10.889,25.074,3.655,17.839,5.464,16.03l5.425,5.426L25.536,6.806m0-3.656L10.889,17.8,5.464,12.374,0,17.839,10.889,28.73,31,8.615Z" transform="translate(108.5 802.5)" opacity="0.06"/><g transform="translate(127 -320.35)" opacity="0.06"><path d="M25.536,6.805l1.808,1.808L10.889,25.07,3.655,17.836l1.808-1.808,5.425,5.425L25.536,6.805m0-3.655L10.889,17.8,5.464,12.372,0,17.836,10.889,28.725,31,8.614Z" transform="translate(189 373.85)"/><path d="M678-3655.516l6.9,7.458,16.271-15.593" transform="translate(-485.087 4045.643)" fill="none" stroke="#000" stroke-width="5"/></g><g transform="translate(127 -106.35)" opacity="0.06"><path d="M25.536,6.805l1.808,1.808L10.889,25.07,3.655,17.836l1.808-1.808,5.425,5.425L25.536,6.805m0-3.655L10.889,17.8,5.464,12.372,0,17.836,10.889,28.725,31,8.614Z" transform="translate(189 373.85)"/><path d="M678-3655.516l6.9,7.458,16.271-15.593" transform="translate(-485.087 4045.643)" fill="none" stroke="#000" stroke-width="5"/></g><g transform="translate(127 107.65)" opacity="0.06"><path d="M25.536,6.805l1.808,1.808L10.889,25.07,3.655,17.836l1.808-1.808,5.425,5.425L25.536,6.805m0-3.655L10.889,17.8,5.464,12.372,0,17.836,10.889,28.725,31,8.614Z" transform="translate(189 373.85)"/><path d="M678-3655.516l6.9,7.458,16.271-15.593" transform="translate(-485.087 4045.643)" fill="none" stroke="#000" stroke-width="5"/></g><g transform="translate(127 321.65)" opacity="0.06"><path d="M25.536,6.805l1.808,1.808L10.889,25.07,3.655,17.836l1.808-1.808,5.425,5.425L25.536,6.805m0-3.655L10.889,17.8,5.464,12.372,0,17.836,10.889,28.725,31,8.614Z" transform="translate(189 373.85)"/><path d="M678-3655.516l6.9,7.458,16.271-15.593" transform="translate(-485.087 4045.643)" fill="none" stroke="#000" stroke-width="5"/></g><g transform="translate(168.5 -213.35)" opacity="0.06"><path d="M25.536,6.805l1.808,1.808L10.889,25.07,3.655,17.836l1.808-1.808,5.425,5.425L25.536,6.805m0-3.655L10.889,17.8,5.464,12.372,0,17.836,10.889,28.725,31,8.614Z" transform="translate(189 373.85)"/><path d="M678-3655.516l6.9,7.458,16.271-15.593" transform="translate(-485.087 4045.643)" fill="none" stroke="#000" stroke-width="5"/></g><g transform="translate(168.5 0.65)" opacity="0.06"><path d="M25.536,6.805l1.808,1.808L10.889,25.07,3.655,17.836l1.808-1.808,5.425,5.425L25.536,6.805m0-3.655L10.889,17.8,5.464,12.372,0,17.836,10.889,28.725,31,8.614Z" transform="translate(189 373.85)"/><path d="M678-3655.516l6.9,7.458,16.271-15.593" transform="translate(-485.087 4045.643)" fill="none" stroke="#000" stroke-width="5"/></g><g transform="translate(168.5 214.65)" opacity="0.06"><path d="M25.536,6.805l1.808,1.808L10.889,25.07,3.655,17.836l1.808-1.808,5.425,5.425L25.536,6.805m0-3.655L10.889,17.8,5.464,12.372,0,17.836,10.889,28.725,31,8.614Z" transform="translate(189 373.85)"/><path d="M678-3655.516l6.9,7.458,16.271-15.593" transform="translate(-485.087 4045.643)" fill="none" stroke="#000" stroke-width="5"/></g><g transform="translate(168.5 428.65)" opacity="0.06"><path d="M25.536,6.805l1.808,1.808L10.889,25.07,3.655,17.836l1.808-1.808,5.425,5.425L25.536,6.805m0-3.655L10.889,17.8,5.464,12.372,0,17.836,10.889,28.725,31,8.614Z" transform="translate(189 373.85)"/><path d="M678-3655.516l6.9,7.458,16.271-15.593" transform="translate(-485.087 4045.643)" fill="none" stroke="#000" stroke-width="5"/></g><g transform="translate(-39 -320.35)" opacity="0.06"><path d="M25.536,6.805l1.808,1.808L10.889,25.07,3.655,17.836l1.808-1.808,5.425,5.425L25.536,6.805m0-3.655L10.889,17.8,5.464,12.372,0,17.836,10.889,28.725,31,8.614Z" transform="translate(189 373.85)"/><path d="M678-3655.516l6.9,7.458,16.271-15.593" transform="translate(-485.087 4045.643)" fill="none" stroke="#000" stroke-width="5"/></g><g transform="translate(-39 -106.35)" opacity="0.06"><path d="M25.536,6.805l1.808,1.808L10.889,25.07,3.655,17.836l1.808-1.808,5.425,5.425L25.536,6.805m0-3.655L10.889,17.8,5.464,12.372,0,17.836,10.889,28.725,31,8.614Z" transform="translate(189 373.85)"/><path d="M678-3655.516l6.9,7.458,16.271-15.593" transform="translate(-485.087 4045.643)" fill="none" stroke="#000" stroke-width="5"/></g><g transform="translate(-39 107.65)" opacity="0.06"><path d="M25.536,6.805l1.808,1.808L10.889,25.07,3.655,17.836l1.808-1.808,5.425,5.425L25.536,6.805m0-3.655L10.889,17.8,5.464,12.372,0,17.836,10.889,28.725,31,8.614Z" transform="translate(189 373.85)"/><path d="M678-3655.516l6.9,7.458,16.271-15.593" transform="translate(-485.087 4045.643)" fill="none" stroke="#000" stroke-width="5"/></g><g transform="translate(-39 321.65)" opacity="0.06"><path d="M25.536,6.805l1.808,1.808L10.889,25.07,3.655,17.836l1.808-1.808,5.425,5.425L25.536,6.805m0-3.655L10.889,17.8,5.464,12.372,0,17.836,10.889,28.725,31,8.614Z" transform="translate(189 373.85)"/><path d="M678-3655.516l6.9,7.458,16.271-15.593" transform="translate(-485.087 4045.643)" fill="none" stroke="#000" stroke-width="5"/></g><g transform="translate(2.5 -213.35)" opacity="0.06"><path d="M25.536,6.805l1.808,1.808L10.889,25.07,3.655,17.836l1.808-1.808,5.425,5.425L25.536,6.805m0-3.655L10.889,17.8,5.464,12.372,0,17.836,10.889,28.725,31,8.614Z" transform="translate(189 373.85)"/><path d="M678-3655.516l6.9,7.458,16.271-15.593" transform="translate(-485.087 4045.643)" fill="none" stroke="#000" stroke-width="5"/></g><g transform="translate(2.5 0.65)" opacity="0.06"><path d="M25.536,6.805l1.808,1.808L10.889,25.07,3.655,17.836l1.808-1.808,5.425,5.425L25.536,6.805m0-3.655L10.889,17.8,5.464,12.372,0,17.836,10.889,28.725,31,8.614Z" transform="translate(189 373.85)"/><path d="M678-3655.516l6.9,7.458,16.271-15.593" transform="translate(-485.087 4045.643)" fill="none" stroke="#000" stroke-width="5"/></g><g transform="translate(2.5 214.65)" opacity="0.06"><path d="M25.536,6.805l1.808,1.808L10.889,25.07,3.655,17.836l1.808-1.808,5.425,5.425L25.536,6.805m0-3.655L10.889,17.8,5.464,12.372,0,17.836,10.889,28.725,31,8.614Z" transform="translate(189 373.85)"/><path d="M678-3655.516l6.9,7.458,16.271-15.593" transform="translate(-485.087 4045.643)" fill="none" stroke="#000" stroke-width="5"/></g><g transform="translate(2.5 428.65)" opacity="0.06"><path d="M25.536,6.805l1.808,1.808L10.889,25.07,3.655,17.836l1.808-1.808,5.425,5.425L25.536,6.805m0-3.655L10.889,17.8,5.464,12.372,0,17.836,10.889,28.725,31,8.614Z" transform="translate(189 373.85)"/><path d="M678-3655.516l6.9,7.458,16.271-15.593" transform="translate(-485.087 4045.643)" fill="none" stroke="#000" stroke-width="5"/></g><g transform="translate(-163.5 -213.35)" opacity="0.06"><path d="M25.536,6.805l1.808,1.808L10.889,25.07,3.655,17.836l1.808-1.808,5.425,5.425L25.536,6.805m0-3.655L10.889,17.8,5.464,12.372,0,17.836,10.889,28.725,31,8.614Z" transform="translate(189 373.85)"/><path d="M678-3655.516l6.9,7.458,16.271-15.593" transform="translate(-485.087 4045.643)" fill="none" stroke="#000" stroke-width="5"/></g><g transform="translate(-163.5 0.65)" opacity="0.06"><path d="M25.536,6.805l1.808,1.808L10.889,25.07,3.655,17.836l1.808-1.808,5.425,5.425L25.536,6.805m0-3.655L10.889,17.8,5.464,12.372,0,17.836,10.889,28.725,31,8.614Z" transform="translate(189 373.85)"/><path d="M678-3655.516l6.9,7.458,16.271-15.593" transform="translate(-485.087 4045.643)" fill="none" stroke="#000" stroke-width="5"/></g><g transform="translate(-163.5 214.65)" opacity="0.06"><path d="M25.536,6.805l1.808,1.808L10.889,25.07,3.655,17.836l1.808-1.808,5.425,5.425L25.536,6.805m0-3.655L10.889,17.8,5.464,12.372,0,17.836,10.889,28.725,31,8.614Z" transform="translate(189 373.85)"/><path d="M678-3655.516l6.9,7.458,16.271-15.593" transform="translate(-485.087 4045.643)" fill="none" stroke="#000" stroke-width="5"/></g><g transform="translate(-163.5 428.65)" opacity="0.06"><path d="M25.536,6.805l1.808,1.808L10.889,25.07,3.655,17.836l1.808-1.808,5.425,5.425L25.536,6.805m0-3.655L10.889,17.8,5.464,12.372,0,17.836,10.889,28.725,31,8.614Z" transform="translate(189 373.85)"/><path d="M678-3655.516l6.9,7.458,16.271-15.593" transform="translate(-485.087 4045.643)" fill="none" stroke="#000" stroke-width="5"/></g></g></svg>