<svg xmlns="http://www.w3.org/2000/svg" width="152.524" height="29.621" viewBox="0 0 152.524 29.621"><g transform="translate(0.5 2.255)"><path d="M1068.116,32.366a15.953,15.953,0,0,1-6.035-1.113V25.5a11.969,11.969,0,0,0,2.915,1.56,8.607,8.607,0,0,0,2.974.594,2.952,2.952,0,0,0,1.611-.374,1.227,1.227,0,0,0,.572-1.092,1.49,1.49,0,0,0-.285-.9,2.825,2.825,0,0,0-.865-.725,16.208,16.208,0,0,0-2.146-.922,8.833,8.833,0,0,1-3.8-2.549,5.824,5.824,0,0,1-1.267-3.75,5.911,5.911,0,0,1,2.314-4.871,9.813,9.813,0,0,1,6.211-1.823c.726,0,1.406.03,2.021.088s1.18.132,1.678.22,1.216.256,2.117.5v5.347a10.867,10.867,0,0,0-5.216-1.45,3.235,3.235,0,0,0-1.7.4,1.223,1.223,0,0,0-.644,1.084,1.365,1.365,0,0,0,.52,1.091,9.805,9.805,0,0,0,2.175,1.121,12.117,12.117,0,0,1,4.622,2.886,5.526,5.526,0,0,1,1.355,3.721,6.093,6.093,0,0,1-1.12,3.647,6.666,6.666,0,0,1-3.143,2.315A13.883,13.883,0,0,1,1068.116,32.366ZM1086.134,32h-6.328V10.994h6.328v9.99h.074a11.168,11.168,0,0,1,.63-1.465l4.189-8.525h7.5l-5.962,10.02,6.246,10.5,7.069-20.522h7.852l6.812,21h-6.87l-.922-3.867h-6.269l-1,3.867h-14.062l-4.658-8.878a9.583,9.583,0,0,1-.556-1.45h-.074V32Zm23.408-16.437h0a10.125,10.125,0,0,1-.2,1.157c-.121.55-.717,2.876-1.773,6.914h4.014l-1.465-5.713a18.145,18.145,0,0,1-.425-2.358ZM1045.133,32h-6.841l7.236-21.006h7.852l6.811,21h-6.869l-.922-3.867h-6.27l-1,3.867Zm4.057-16.437h0a10.343,10.343,0,0,1-.205,1.157c-.118.542-.714,2.868-1.772,6.914h4.013l-1.464-5.713a18.141,18.141,0,0,1-.425-2.358ZM1152.828,32H1146.5V24.793l-6.475-13.8h7.266l1.333,3.877,1.419,4.643q.029.134.06.268h.022l2.7,8.839V32Zm-19.2,0h-6.358V15.945h-5.873V10.994h18.178v4.951h-5.947V32Zm-101.938,0h-6.358V15.945h-5.873V10.994h18.178v4.951h-5.947V32Z" transform="translate(-1019.454 -5.5)" stroke="rgba(0,0,0,0)" stroke-miterlimit="10" stroke-width="1"/><line y1="18.143" x2="20.672" transform="translate(129.374)" fill="none" stroke="#000" stroke-width="6"/><rect width="3" height="6" transform="translate(130.375 18.5)"/></g></svg>