<svg xmlns="http://www.w3.org/2000/svg" width="24" height="23.999" viewBox="0 0 24 23.999">
    <path
        d="M-1401,18.609h-16a4,4,0,0,1-4-4v-16a4,4,0,0,1,4-4h16a4,4,0,0,1,4,4v16A4,4,0,0,1-1401,18.609Zm-9.651-14.894v9.027a1.323,1.323,0,0,0,1.35,1.291,1.307,1.307,0,0,0,1.35-1.291V3.715l3.349,3.5a1.375,1.375,0,0,0,.954.377,1.374,1.374,0,0,0,.953-.377,1.248,1.248,0,0,0,.4-.908,1.257,1.257,0,0,0-.4-.915l-5.653-5.826a1.279,1.279,0,0,0-.945-.38h-.016a1.279,1.279,0,0,0-.945.38l-5.653,5.826a1.257,1.257,0,0,0-.4.915,1.248,1.248,0,0,0,.4.908,1.374,1.374,0,0,0,.953.377,1.375,1.375,0,0,0,.954-.377l3.347-3.5Z"
        transform="translate(1421 5.39)" fill="#707070" />
</svg>